{"title":"Nadir Shah 1968 X264 AAC 1CDRip [RRG DBB][DADA] ClassiC","uid":8181432,"size":408218119,"categoryP":"video","categoryS":"movies","magnet":"?xt=urn:btih:b8e8f9c187e71b76a539824717363dda7e196f3d&amp;dn=Nadir+Shah+1968+X264+AAC+1CDRip+%5BRRG+DBB%5D%5BDADA%5D+ClassiC&amp;tr=udp%3A%2F%2Ftracker.openbittorrent.com%3A80&amp;tr=udp%3A%2F%2Fopen.demonii.com%3A1337&amp;tr=udp%3A%2F%2Ftracker.coppersurfer.tk%3A6969&amp;tr=udp%3A%2F%2Fexodus.desync.com%3A6969","seeders":1,"leechers":0,"uploader":"brego45","files":1,"time":1361634599,"description":"\nCover \n &lt;a href=&quot;\nhttp://desibbrg.net/imghost/show.php?img=429779_Nadir.Shah.1968.X264.AAC.RRG.DADA..jpg.html&quot; rel=&quot;nofollow&quot; target=&quot;_NEW&quot;&gt;\nhttp://desibbrg.net/imghost/show.php?img=429779_Nadir.Shah.1968.X264.AAC.RRG.DADA..jpg.html&lt;/a&gt;\n\nScreens\n\n &lt;a href=&quot;\nhttp://desibbrg.net/imghost/show.php?img=429783_Nadir.Shah.1968.X264.AAC.RRG.DADA.DBBIANS.Comthumbs.jpg.html&quot; rel=&quot;nofollow&quot; target=&quot;_NEW&quot;&gt;\nhttp://desibbrg.net/imghost/show.php?img=429783_Nadir.Shah.1968.X264.AAC.RRG.DADA.DBBIANS.Comthumbs.jpg.html&lt;/a&gt;\n &lt;a href=&quot;\nhttp://www.imdb.com/title/tt1286595/&quot; rel=&quot;nofollow&quot; target=&quot;_NEW&quot;&gt;\nhttp://www.imdb.com/title/tt1286595/&lt;/a&gt;\n\n\nGeneral\n\nFormat                           : MP4 Video\nFile size                        : 389 MiB\nDuration                         : 2h 3mn\nOverall bit rate                 : 439 Kbps\n\n\nVideo\nFormat                           : AVC\nFormat/Info                      : Advanced Video Codec\nFormat profile                   : &lt;a class=&quot;__cf_email__&quot; href=&quot;/cdn-cgi/l/email-protection&quot; data-cfemail=&quot;1459757d7a5458263a25&quot;&gt;[email&amp;#160;protected]&lt;/a&gt;&lt;script cf-hash='f9e31' type=&quot;text/javascript&quot;&gt;\n/* &lt;![CDATA[ */!function(){try{var t=&quot;currentScript&quot;in document?document.currentScript:function(){for(var t=document.getElementsByTagName(&quot;script&quot;),e=t.length;e--;)if(t[e].getAttribute(&quot;cf-hash&quot;))return t[e]}();if(t&amp;&amp;t.previousSibling){var e,r,n,i,c=t.previousSibling,a=c.getAttribute(&quot;data-cfemail&quot;);if(a){for(e=&quot;&quot;,r=parseInt(a.substr(0,2),16),n=2;a.length-n;n+=2)i=parseInt(a.substr(n,2),16)^r,e+=String.fromCharCode(i);e=document.createTextNode(e),c.parentNode.replaceChild(e,c)}}}catch(u){}}();/* ]]&gt; */&lt;/script&gt;\nFormat settings, CABAC           : Yes\nFormat settings, ReFrames        : 3 frames\nMuxing mode                      : Container profile=&lt;a class=&quot;__cf_email__&quot; href=&quot;/cdn-cgi/l/email-protection&quot; data-cfemail=&quot;1d48737673726a735d2f332c&quot;&gt;[email&amp;#160;protected]&lt;/a&gt;&lt;script cf-hash='f9e31' type=&quot;text/javascript&quot;&gt;\n/* &lt;![CDATA[ */!function(){try{var t=&quot;currentScript&quot;in document?document.currentScript:function(){for(var t=document.getElementsByTagName(&quot;script&quot;),e=t.length;e--;)if(t[e].getAttribute(&quot;cf-hash&quot;))return t[e]}();if(t&amp;&amp;t.previousSibling){var e,r,n,i,c=t.previousSibling,a=c.getAttribute(&quot;data-cfemail&quot;);if(a){for(e=&quot;&quot;,r=parseInt(a.substr(0,2),16),n=2;a.length-n;n+=2)i=parseInt(a.substr(n,2),16)^r,e+=String.fromCharCode(i);e=document.createTextNode(e),c.parentNode.replaceChild(e,c)}}}catch(u){}}();/* ]]&gt; */&lt;/script&gt;\nDuration                         : 2h 3mn\nBit rate                         : 302 Kbps\nWidth                            : 384 pixels\nHeight                           : 288 pixels\nDisplay aspect ratio             : 4:3\nFrame rate mode                  : Constant\nFrame rate                       : 25.000 fps\nColor space                      : YUV\nChroma subsampling               : 4:2:0\nBit depth                        : 8 bits\nScan type                        : Progressive\nBits/(Pixel*Frame)               : 0.109\nStream size                      : 268 MiB (69%)\n\nAudio\nFormat                           : AAC\nFormat/Info                      : Advanced Audio Codec\nFormat version                   : Version 4\nFormat profile                   : LC\nFormat settings, SBR             : No\nDuration                         : 2h 3mn\nBit rate                         : 129 Kbps\nChannel(s)                       : 2 channels\nChannel positions                : Front: L R\nSampling rate                    : 44.1 KHz\nBit depth                        : 16 bits\nStream size                      : 114 MiB (29%)\n\n\nNadir Shah Cast &amp; Crew:\n\n    Banner\n    Amarjeet Productions\n\n    Release Date\n    1 Jan 1968\n\n    Star Cast\n    Feroz Khan\n    Naaz\n    Sheikh Mukhtar\n    Murad\n    Minoo\n    Mumtaz\n    Hiralal\n\nColor\nC\nLanguage\nHindi\nDirector\n\n    S N Tripathi\n","torrent":{"xt":"urn:btih:b8e8f9c187e71b76a539824717363dda7e196f3d","amp;dn":"Nadir+Shah+1968+X264+AAC+1CDRip+%5BRRG+DBB%5D%5BDADA%5D+ClassiC","amp;tr":["udp%3A%2F%2Ftracker.openbittorrent.com%3A80","udp%3A%2F%2Fopen.demonii.com%3A1337","udp%3A%2F%2Ftracker.coppersurfer.tk%3A6969","udp%3A%2F%2Fexodus.desync.com%3A6969"],"infoHash":"b8e8f9c187e71b76a539824717363dda7e196f3d","infoHashBuffer":{"type":"Buffer","data":[184,232,249,193,135,231,27,118,165,57,130,71,23,54,61,218,126,25,111,61]},"announce":[],"urlList":[]}}